<svg xmlns="http://www.w3.org/2000/svg" viewBox="0 0 91 91">
  <defs>
    <style>
      .cls-1, .cls-2, .cls-4 {
        fill: none;
      }

      .cls-1, .cls-2 {
        stroke: #43c13e;
        stroke-width: 2px;
      }

      .cls-2 {
        stroke-linecap: round;
        stroke-linejoin: round;
        stroke-miterlimit: 10;
      }

      .cls-3 {
        stroke: none;
      }
    </style>
  </defs>
  <g id="Group_40" data-name="Group 40" transform="translate(-139 -2138)">
    <g id="Group_14" data-name="Group 14" transform="translate(-1 606)">
      <g id="Ellipse_8" data-name="Ellipse 8" class="cls-1" transform="translate(140 1532)">
        <circle class="cls-3" cx="45.5" cy="45.5" r="45.5"/>
        <circle class="cls-4" cx="45.5" cy="45.5" r="44.5"/>
      </g>
      <g id="Group_11" data-name="Group 11" transform="translate(157.003 1549.98)">
        <path id="Path_214" data-name="Path 214" class="cls-2" d="M1,54.7H51.5s-.4-7.7-5.8-9.4-9.9,3.2-9.9,3.2-4.9-6-12.7-6.2-9.9,2.3-12.3,6.2C10.7,48.6.8,49.3,1,54.7Z"/>
        <path id="Path_215" data-name="Path 215" class="cls-2" d="M23.1,42.4c-.6.9-6.9-16.9,4.7-27.8"/>
        <path id="Path_216" data-name="Path 216" class="cls-2" d="M21.1,35.8s6.1-12.4,19.8-9.5"/>
        <path id="Path_217" data-name="Path 217" class="cls-2" d="M11.5,16.8s0,6.5,9.4,11.8"/>
        <path id="Path_218" data-name="Path 218" class="cls-2" d="M30.2,26.2S42,11.1,56,31.3C44.7,34.5,39.1,38,30.2,26.2Z"/>
        <path id="Path_219" data-name="Path 219" class="cls-2" d="M13.9,22.6s6.9-9-3.9-19.3C4.2,14.6,6.5,18.7,13.9,22.6Z"/>
        <path id="Path_220" data-name="Path 220" class="cls-2" d="M23.6,20.7a16.4,16.4,0,0,0,13.1-5.2A33.357,33.357,0,0,0,44.1,1.3S32.3-.6,26.9,5.5c-5.4,6.2-4.2,14.9-4.2,14.9"/>
      </g>
    </g>
  </g>
</svg>
