<svg xmlns="http://www.w3.org/2000/svg" viewBox="0 0 91 91">
  <defs>
    <style>
      .cls-1, .cls-2, .cls-3, .cls-5 {
        fill: none;
      }

      .cls-1, .cls-2, .cls-3 {
        stroke: #43c13e;
      }

      .cls-1, .cls-3 {
        stroke-width: 2px;
      }

      .cls-2, .cls-3 {
        stroke-linecap: round;
        stroke-linejoin: round;
        stroke-miterlimit: 10;
      }

      .cls-2 {
        stroke-width: 2.133px;
      }

      .cls-4 {
        stroke: none;
      }
    </style>
  </defs>
  <g id="Group_42" data-name="Group 42" transform="translate(-1137 -1925)">
    <g id="Group_38" data-name="Group 38">
      <g id="Ellipse_6" data-name="Ellipse 6" class="cls-1" transform="translate(1137 1925)">
        <circle class="cls-4" cx="45.5" cy="45.5" r="45.5"/>
        <circle class="cls-5" cx="45.5" cy="45.5" r="44.5"/>
      </g>
    </g>
    <g id="Group_35" data-name="Group 35" transform="translate(1150 1940)">
      <g id="Group_32" data-name="Group 32">
        <g id="Group_31" data-name="Group 31">
          <line id="Line_9" data-name="Line 9" class="cls-2" y2="21.7" transform="translate(32.1 33.5)"/>
          <line id="Line_10" data-name="Line 10" class="cls-2" y1="6.4" x2="7.6" transform="translate(32.1 39.2)"/>
          <line id="Line_11" data-name="Line 11" class="cls-2" x1="6.6" y1="5.5" transform="translate(25.5 38.9)"/>
        </g>
        <path id="Path_224" data-name="Path 224" class="cls-2" d="M32.1,49.3c-2.4-2.5-4.9,3.6-5.5,3.6-.8-2.3-4.2-2.1-4.2-2.1s2.2-1.7,2.7-3c1.4-4.1-7.1-5.3-7.1-5.3,3.2-3.8,0-10,0-10s6.7,4,8.6,1.7-2-6.3-2-6.3a8.9,8.9,0,0,0,7.6-4.7,8.9,8.9,0,0,0,7.6,4.7s-3.9,4-2,6.3,8.6-1.7,8.6-1.7-3.2,6.2,0,10c0,0-8.5,1.2-7.1,5.3.5,1.4,2.7,3,2.7,3s-3.4-.2-4.2,2.1C37,52.9,34.5,46.8,32.1,49.3Z"/>
      </g>
      <g id="Group_34" data-name="Group 34">
        <g id="Group_33" data-name="Group 33">
          <path id="Path_225" data-name="Path 225" class="cls-3" d="M63.2,32.1,36.9,5.8h0L32.1,1h0L27.3,5.8h0L1,32.1l4.8,4.8L32.1,10.7,58.4,36.9Z"/>
          <line id="Line_12" data-name="Line 12" class="cls-3" y1="25.5" transform="translate(8.1 34.6)"/>
          <line id="Line_13" data-name="Line 13" class="cls-3" y2="25.5" transform="translate(56.1 34.6)"/>
          <path id="Path_226" data-name="Path 226" class="cls-3" d="M44.6,13.5V3.7H54.9V23.8"/>
        </g>
        <line id="Line_14" data-name="Line 14" class="cls-3" x2="56.8" transform="translate(3.7 60.1)"/>
      </g>
    </g>
  </g>
</svg>
