<svg xmlns="http://www.w3.org/2000/svg" viewBox="0 0 91 91">
  <defs>
    <style>
      .cls-1, .cls-2, .cls-3, .cls-5 {
        fill: none;
      }

      .cls-1, .cls-2, .cls-3 {
        stroke: #43c13e;
      }

      .cls-1, .cls-2 {
        stroke-width: 2px;
      }

      .cls-2, .cls-3 {
        stroke-linecap: round;
        stroke-linejoin: round;
        stroke-miterlimit: 10;
      }

      .cls-3 {
        stroke-width: 2.133px;
      }

      .cls-4 {
        stroke: none;
      }
    </style>
  </defs>
  <g id="Group_39" data-name="Group 39" transform="translate(-1137 -2138)">
    <g id="Group_16" data-name="Group 16" transform="translate(1 613)">
      <g id="Ellipse_7" data-name="Ellipse 7" class="cls-1" transform="translate(1136 1525)">
        <circle class="cls-4" cx="45.5" cy="45.5" r="45.5"/>
        <circle class="cls-5" cx="45.5" cy="45.5" r="44.5"/>
      </g>
      <g id="Group_10" data-name="Group 10" transform="translate(1149 1540.91)">
        <g id="Group_8" data-name="Group 8">
          <path id="Path_207" data-name="Path 207" class="cls-2" d="M30.7,43.9l7.8,4.3L60.2,34.8a1.2,1.2,0,0,1,.8-.2,2.171,2.171,0,0,1,2.2,1.7l.2.9a2.76,2.76,0,0,1-1.1,3l-22.9,17a5.8,5.8,0,0,1-2.1,1l-1.1.3a3.33,3.33,0,0,1-2.2-.1L11.4,51a4.147,4.147,0,0,0-3.1.2L1,54.8"/>
          <path id="Path_208" data-name="Path 208" class="cls-2" d="M2.8,39.9l14.6-5a4.133,4.133,0,0,1,1.9-.2l25,3.2a2.114,2.114,0,0,1,1.8,2.3L46,41.6a2.38,2.38,0,0,1-2.3,2.2l-13,.2-5.3-.2"/>
          <path id="Path_209" data-name="Path 209" class="cls-2" d="M43.3,37.8,53,33.9a2.208,2.208,0,0,1,1.6,0h0a2.913,2.913,0,0,1,2,2.8V37"/>
        </g>
        <g id="Group_9" data-name="Group 9">
          <path id="Path_210" data-name="Path 210" class="cls-3" d="M11.2,12.4S28.6,16.5,44,13"/>
          <path id="Path_211" data-name="Path 211" class="cls-3" d="M24.5,14.4s4.4,5.7,11.4,6"/>
          <path id="Path_212" data-name="Path 212" class="cls-3" d="M28.5,14.4S33.2,9,37.4,8"/>
          <path id="Path_213" data-name="Path 213" class="cls-3" d="M16.7,14.1S17.6-.3,30,1.2C43,2.8,49.6,8.1,56.7,6.6A28.189,28.189,0,0,1,39.4,25.9C26.8,30.6,18.7,26.4,16.7,14.1Z"/>
        </g>
      </g>
    </g>
  </g>
</svg>
